HIERARCHY
ROOT Hips
{
    OFFSET   0.000000   0.000000   0.000000
    CHANNELS 6 Xposition Yposition Zposition Zrotation Xrotation Yrotation
    JOINT Chest
    {
        OFFSET   0.000000   8.007240   0.000000
        CHANNELS 3 Zrotation Xrotation Yrotation
        JOINT Chest2
        {
            OFFSET   0.000000  22.077100   0.000000
            CHANNELS 3 Zrotation Xrotation Yrotation
            JOINT Neck
            {
                OFFSET   0.000000  23.254800   0.000000
                CHANNELS 3 Zrotation Xrotation Yrotation
                JOINT Head
                {
                    OFFSET   0.000000  14.370000   1.956600
                    CHANNELS 3 Zrotation Xrotation Yrotation
                    End Site
                    {
                        OFFSET   0.000000  19.566000   0.000000
                    }
                }
            }
            JOINT LeftCollar
            {
                OFFSET   3.911900  19.017000  -0.467064
                CHANNELS 3 Zrotation Xrotation Yrotation
                JOINT LeftShoulder
                {
                    OFFSET  10.383700   0.000000   0.000000
                    CHANNELS 3 Zrotation Xrotation Yrotation
                    JOINT LeftElbow
                    {
                        OFFSET  26.662100   0.001476   0.000517
                        CHANNELS 3 Zrotation Xrotation Yrotation
                        JOINT LeftWrist
                        {
                            OFFSET  28.869000  -0.000025  -0.000106
                            CHANNELS 3 Zrotation Xrotation Yrotation
                            JOINT LeftFinger0
                            {
                                OFFSET   2.044660  -2.323460   3.252850
                                CHANNELS 3 Zrotation Xrotation Yrotation
                                JOINT LeftFinger01
                                {
                                    OFFSET   3.088130   0.000000   0.000000
                                    CHANNELS 3 Zrotation Xrotation Yrotation
                                    JOINT LeftFinger02
                                    {
                                        OFFSET   2.639460   0.000000   0.000000
                                        CHANNELS 3 Zrotation Xrotation Yrotation
                                        End Site
                                        {
                                            OFFSET   2.582190   0.000000   0.000000
                                        }
                                    }
                                }
                            }
                            JOINT LeftFinger1
                            {
                                OFFSET   8.364480   0.000000   3.252850
                                CHANNELS 3 Zrotation Xrotation Yrotation
                                JOINT LeftFinger11
                                {
                                    OFFSET   4.646930   0.000000   0.000000
                                    CHANNELS 3 Zrotation Xrotation Yrotation
                                    JOINT LeftFinger12
                                    {
                                        OFFSET   2.323460   0.000000   0.000000
                                        CHANNELS 3 Zrotation Xrotation Yrotation
                                        End Site
                                        {
                                            OFFSET   2.273050   0.000000   0.000000
                                        }
                                    }
                                }
                            }
                            JOINT LeftFinger2
                            {
                                OFFSET   8.364490   0.000015   1.078090
                                CHANNELS 3 Zrotation Xrotation Yrotation
                                JOINT LeftFinger21
                                {
                                    OFFSET   5.111620   0.000000   0.000000
                                    CHANNELS 3 Zrotation Xrotation Yrotation
                                    JOINT LeftFinger22
                                    {
                                        OFFSET   2.788160   0.000016   0.000000
                                        CHANNELS 3 Zrotation Xrotation Yrotation
                                        End Site
                                        {
                                            OFFSET   2.727660   0.000000   0.000000
                                        }
                                    }
                                }
                            }
                            JOINT LeftFinger3
                            {
                                OFFSET   7.899780   0.000017  -1.078090
                                CHANNELS 3 Zrotation Xrotation Yrotation
                                JOINT LeftFinger31
                                {
                                    OFFSET   4.646930   0.000000   0.000000
                                    CHANNELS 3 Zrotation Xrotation Yrotation
                                    JOINT LeftFinger32
                                    {
                                        OFFSET   2.323470   0.000000   0.000000
                                        CHANNELS 3 Zrotation Xrotation Yrotation
                                        End Site
                                        {
                                            OFFSET   2.273050   0.000000   0.000000
                                        }
                                    }
                                }
                            }
                            JOINT LeftFinger4
                            {
                                OFFSET   7.435090   0.000000  -3.252850
                                CHANNELS 3 Zrotation Xrotation Yrotation
                                JOINT LeftFinger41
                                {
                                    OFFSET   3.717550   0.000000   0.000000
                                    CHANNELS 3 Zrotation Xrotation Yrotation
                                    JOINT LeftFinger42
                                    {
                                        OFFSET   1.858770   0.000000   0.000000
                                        CHANNELS 3 Zrotation Xrotation Yrotation
                                        End Site
                                        {
                                            OFFSET   1.818440   0.000000   0.000000
                                        }
                                    }
                                }
                            }
                        }
                    }
                }
            }
            JOINT RightCollar
            {
                OFFSET  -3.911900  19.017000  -0.467063
                CHANNELS 3 Zrotation Xrotation Yrotation
                JOINT RightShoulder
                {
                    OFFSET -10.383700   0.000019   0.000000
                    CHANNELS 3 Zrotation Xrotation Yrotation
                    JOINT RightElbow
                    {
                        OFFSET -26.662100   0.001175   0.000102
                        CHANNELS 3 Zrotation Xrotation Yrotation
                        JOINT RightWrist
                        {
                            OFFSET -28.869000   0.000016  -0.000079
                            CHANNELS 3 Zrotation Xrotation Yrotation
                            JOINT RightFinger0
                            {
                                OFFSET  -2.044660  -2.323490   3.252850
                                CHANNELS 3 Zrotation Xrotation Yrotation
                                JOINT RightFinger01
                                {
                                    OFFSET  -3.088140   0.000000   0.000000
                                    CHANNELS 3 Zrotation Xrotation Yrotation
                                    JOINT RightFinger02
                                    {
                                        OFFSET  -2.639460   0.000000   0.000000
                                        CHANNELS 3 Zrotation Xrotation Yrotation
                                        End Site
                                        {
                                            OFFSET  -2.582190   0.000000   0.000000
                                        }
                                    }
                                }
                            }
                            JOINT RightFinger1
                            {
                                OFFSET  -8.364480   0.000000   3.252850
                                CHANNELS 3 Zrotation Xrotation Yrotation
                                JOINT RightFinger11
                                {
                                    OFFSET  -4.646930   0.000000   0.000000
                                    CHANNELS 3 Zrotation Xrotation Yrotation
                                    JOINT RightFinger12
                                    {
                                        OFFSET  -2.323470   0.000000   0.000000
                                        CHANNELS 3 Zrotation Xrotation Yrotation
                                        End Site
                                        {
                                            OFFSET  -2.273050   0.000000   0.000000
                                        }
                                    }
                                }
                            }
                            JOINT RightFinger2
                            {
                                OFFSET  -8.364480   0.000000   1.078090
                                CHANNELS 3 Zrotation Xrotation Yrotation
                                JOINT RightFinger21
                                {
                                    OFFSET  -5.111620   0.000000   0.000000
                                    CHANNELS 3 Zrotation Xrotation Yrotation
                                    JOINT RightFinger22
                                    {
                                        OFFSET  -2.788160   0.000000   0.000000
                                        CHANNELS 3 Zrotation Xrotation Yrotation
                                        End Site
                                        {
                                            OFFSET  -2.727660   0.000000   0.000000
                                        }
                                    }
                                }
                            }
                            JOINT RightFinger3
                            {
                                OFFSET  -7.899780   0.000000  -1.078090
                                CHANNELS 3 Zrotation Xrotation Yrotation
                                JOINT RightFinger31
                                {
                                    OFFSET  -4.646930   0.000000   0.000000
                                    CHANNELS 3 Zrotation Xrotation Yrotation
                                    JOINT RightFinger32
                                    {
                                        OFFSET  -2.323470   0.000000   0.000000
                                        CHANNELS 3 Zrotation Xrotation Yrotation
                                        End Site
                                        {
                                            OFFSET  -2.273050   0.000000   0.000000
                                        }
                                    }
                                }
                            }
                            JOINT RightFinger4
                            {
                                OFFSET  -7.435090   0.000000  -3.252850
                                CHANNELS 3 Zrotation Xrotation Yrotation
                                JOINT RightFinger41
                                {
                                    OFFSET  -3.717550   0.000000   0.000000
                                    CHANNELS 3 Zrotation Xrotation Yrotation
                                    JOINT RightFinger42
                                    {
                                        OFFSET  -1.858770   0.000000   0.000000
                                        CHANNELS 3 Zrotation Xrotation Yrotation
                                        End Site
                                        {
                                            OFFSET  -1.818440   0.000000   0.000000
                                        }
                                    }
                                }
                            }
                        }
                    }
                }
            }
        }
    }
    JOINT LeftHip
    {
        OFFSET   9.783040   0.000000   0.000000
        CHANNELS 3 Zrotation Xrotation Yrotation
        JOINT LeftKnee
        {
            OFFSET   0.000032 -41.789100  -0.002222
            CHANNELS 3 Zrotation Xrotation Yrotation
            JOINT LeftAnkle
            {
                OFFSET   0.000087 -41.133200  -0.000135
                CHANNELS 3 Zrotation Xrotation Yrotation
                JOINT LeftToe
                {
                    OFFSET   0.000000  -6.358960  14.674500
                    CHANNELS 3 Zrotation Xrotation Yrotation
                    End Site
                    {
                        OFFSET   0.000000   0.000000   3.913200
                    }
                }
            }
        }
    }
    JOINT RightHip
    {
        OFFSET  -9.783040   0.000000   0.000000
        CHANNELS 3 Zrotation Xrotation Yrotation
        JOINT RightKnee
        {
            OFFSET   0.000047 -41.789100  -0.000896
            CHANNELS 3 Zrotation Xrotation Yrotation
            JOINT RightAnkle
            {
                OFFSET  -0.000117 -41.133300  -0.000248
                CHANNELS 3 Zrotation Xrotation Yrotation
                JOINT RightToe
                {
                    OFFSET   0.000000  -6.358970  14.674500
                    CHANNELS 3 Zrotation Xrotation Yrotation
                    End Site
                    {
                        OFFSET   0.000000   0.000000   3.913200
                    }
                }
            }
        }
    }
}
MOTION
Frames: 4
Frame Time:   0.016667
  0.709582  89.479000   3.252510  -3.299010  -9.671700  -2.273720   2.468880  10.962000  -0.254014   5.133470  21.902000  -1.028410  -2.548790  -3.489280  -0.145970  -4.231520  -7.033700   8.056400 -12.625400  -5.162840   0.738277 -53.731900  24.742200 -58.721500  11.394500  -2.017740 -55.594400   1.276950 -13.236500  -2.860610  53.975800  51.818400 -101.970000  17.522700  -0.001941   0.007363  13.761300   0.007461   0.001146 -19.901700   2.841820  -7.798030 -16.441700   0.005488  -0.000341 -11.509200   0.000494   0.004879 -23.527900   0.608412  -1.397060 -23.535300   0.004659   0.005823 -15.674500  -0.001983   0.004789 -27.302400  -3.375070   6.506460 -29.174800   0.002663   0.004879 -19.430500   0.004039   0.011978 -29.705900  -5.037420   8.749370 -45.137200   0.000560  -0.000287 -30.061400  -0.000679   0.002371   4.854970  -6.609140  15.149800  48.428500  10.184600  49.654900 -18.607400  -1.638870  54.631400  -5.675390 -27.391900  22.092600 -59.025100  54.336200 108.290000 -17.639900   0.009461   0.003100 -13.819900   0.002062   0.004717  24.664600   6.129730  13.090700  20.756100   0.003063  -0.003785  14.529300  -0.004296  -0.003335  21.767400   2.785610   6.939370  21.936400   0.004478  -0.003366  14.609600   0.004866  -0.003611  27.839400  -0.967375  -1.830930  31.102100   0.001957  -0.003021  20.714000   0.002352  -0.003422  32.182800  -2.503450  -3.970390  48.404400  -0.005552  -0.001092  32.237400   0.010521  -0.001259   4.012180  15.027000   4.884730   1.458000   0.317839  11.481500  -3.647420  -3.680000   3.053470  -0.000000   0.000000  -0.000000   0.885818   8.063420  -5.230860   0.725479   7.750340  -5.623640  -2.170640  -4.250280  -1.048950  -0.000000   0.000000  -0.000000
  0.724824  89.478800   3.308050  -3.304420  -9.633780  -2.291290   2.461060  10.961500  -0.250735   5.116500  21.901200  -1.019370  -2.547460  -3.481050  -0.146021  -4.228510  -7.017400   8.001260 -12.637900  -5.156890   0.730449 -53.820700  24.780100 -58.585600  11.431200  -1.892130 -55.805100   1.381650 -13.051600  -2.867140  54.132600  51.904000 -102.164000  17.466400  -0.001893   0.007404  13.734900   0.007616   0.001179 -19.929000   2.849450  -7.804420 -16.464500   0.005471  -0.000338 -11.525200   0.000518   0.004877 -23.532800   0.597851  -1.372530 -23.539900   0.004612   0.005827 -15.678800  -0.001979   0.004777 -27.315100  -3.388940   6.528330 -29.244400   0.002585   0.004847 -19.476800   0.004005   0.011969 -29.727400  -5.052680   8.767960 -45.172500   0.000551  -0.000197 -30.084900  -0.000672   0.002316   4.860010  -6.553930  15.156200  48.475700  10.333700  49.740300 -18.597300  -1.601000  54.839400  -5.758190 -27.299200  22.067200 -59.030600  54.336200 108.290000 -17.609100   0.009584   0.003130 -13.804500   0.002134   0.004725  24.701700   6.119300  13.047600  20.783600   0.003058  -0.003786  14.548500  -0.004313  -0.003421  21.791500   2.776340   6.904280  21.959100   0.004468  -0.003333  14.624700   0.004796  -0.003561  27.844400  -0.985459  -1.864870  31.134300   0.001960  -0.003075  20.735500   0.002347  -0.003423  32.219900  -2.506650  -3.971120  48.460200  -0.005548  -0.001106  32.274600   0.010517  -0.001368   4.009400  15.013800   4.892980   1.447870   0.354719  11.486600  -3.650310  -3.729420   3.060440  -0.000000   0.000000  -0.000000   0.871986   8.055950  -5.244350   0.738139   7.763370  -5.602290  -2.188530  -4.270230  -1.049020   0.000000   0.000000   0.000000
  0.737867  89.478600   3.361540  -3.308440  -9.597350  -2.298250   2.453360  10.960500  -0.250266   5.100720  21.899300  -1.017450  -2.545740  -3.465830  -0.146064  -4.225500  -6.986540   7.943340 -12.650600  -5.152760   0.717589 -53.918200  24.792900 -58.434100  11.464600  -1.776680 -55.990700   1.454980 -12.840600  -2.866830  54.173800  51.925600 -102.213000  17.440500  -0.001844   0.007445  13.720200   0.007772   0.001210 -19.955600   2.854980  -7.810790 -16.486900   0.005460  -0.000335 -11.540800   0.000538   0.004875 -23.537500   0.586179  -1.345480 -23.544300   0.004569   0.005831 -15.682600  -0.001975   0.004766 -27.326200  -3.391550   6.531460 -29.299800   0.002511   0.004817 -19.513700   0.003965   0.011958 -29.740300  -5.060160   8.776200 -45.193300   0.000543  -0.000107 -30.098700  -0.000665   0.002260   4.864710  -6.496810  15.160400  48.515300  10.467500  49.811200 -18.577600  -1.564950  55.031500  -5.813480 -27.193700  22.044300 -59.036200  54.336100 108.290000 -17.581900   0.009706   0.003160 -13.791000   0.002210   0.004732  24.717800   6.112570  13.024400  20.795100   0.003055  -0.003787  14.556500  -0.004329  -0.003507  21.806700   2.768000   6.882150  21.973200   0.004457  -0.003300  14.634100   0.004726  -0.003512  27.846100  -0.998256  -1.889050  31.145900   0.001963  -0.003131  20.743200   0.002342  -0.003425  32.240700  -2.509840  -3.971850  48.491500  -0.005545  -0.001121  32.295400   0.010514  -0.001479   4.007400  15.000600   4.899700   1.438380   0.387031  11.487900  -3.652010  -3.772740   3.063360   0.000000   0.000000   0.000000   0.861557   8.050480  -5.258260   0.746045   7.774280  -5.582030  -2.200900  -4.286940  -1.049370  -0.000000   0.000000  -0.000000
  0.751231  89.478400   3.414420  -3.312730  -9.563950  -2.293780   2.446940  10.959500  -0.252950   5.088120  21.897300  -1.021980  -2.543980  -3.449360  -0.146101  -4.222110  -6.953220   7.882640 -12.661400  -5.144930   0.705268 -53.967400  24.819300 -58.278100  11.502400  -1.689700 -56.155200   1.489870 -12.622600  -2.862930  53.971600  51.811300 -101.955000  17.442300  -0.001797   0.007488  13.716600   0.007924   0.001240 -19.981400   2.846390  -7.779630 -16.507000   0.005473  -0.000339 -11.554900   0.000555   0.004876 -23.540900   0.569800  -1.307680 -23.547300   0.004543   0.005831 -15.684100  -0.001996   0.004750 -27.336900  -3.391210   6.528680 -29.352000   0.002495   0.004803 -19.548500   0.003907   0.011941 -29.743700  -5.065060   8.783750 -45.200000   0.000535  -0.000017 -30.103100  -0.000675   0.002199   4.872030  -6.434700  15.165200  48.552600  10.574100  49.863700 -18.550500  -1.526680  55.212700  -5.834850 -27.039500  22.022500 -59.036300  54.336100 108.290000 -17.559800   0.009829   0.003231 -13.780000   0.002281   0.004741  24.713100   6.118630  13.040400  20.792200   0.003048  -0.003785  14.554600  -0.004325  -0.003596  21.784500   2.763980   6.890230  21.950400   0.004452  -0.003270  14.618700   0.004667  -0.003467  27.831400  -0.985878  -1.866740  31.058100   0.001957  -0.003199  20.684700   0.002346  -0.003429  32.214200  -2.493750  -3.950420  48.450400  -0.005555  -0.001128  32.268000   0.010515  -0.001590   4.003990  15.008600   4.904050   1.433900   0.370262  11.488900  -3.648730  -3.786480   3.063100   0.000000   0.000000  -0.000000   0.852265   8.047640  -5.270630   0.747325   7.785760  -5.560770  -2.201680  -4.299770  -1.062600  -0.000000   0.000000   0.000000
